<svg width="24" height="24" viewBox="0 0 24 24" fill="none" xmlns="http://www.w3.org/2000/svg">
<path d="M12.0422 3.40625C10.9295 3.40625 9.35267 6.79794 9.12061 11.0326H14.9638C14.7318 6.79794 13.1549 3.40625 12.0422 3.40625Z" fill="#757575"/>
<path d="M9.12061 13.1738C9.35267 17.4085 10.9295 20.8616 12.0422 20.8616C13.1549 20.8616 14.7318 17.4085 14.9638 13.1738H9.12061Z" fill="#757575"/>
<path d="M17.1088 11.033H21.0003C20.5818 7.48068 18.1005 4.56105 14.7842 3.50586C16.0794 5.0827 16.9521 7.78414 17.1088 11.033Z" fill="#757575"/>
<path d="M6.97696 11.033C7.13366 7.78414 8.00835 5.0827 9.30156 3.50586C5.98723 4.56303 3.50594 7.48068 3.08545 11.033H6.97696Z" fill="#757575"/>
<path d="M17.1088 13.1738C16.9501 16.4227 16.0774 19.1242 14.7842 20.701C18.0985 19.6458 20.5798 16.7262 21.0003 13.1738H17.1088Z" fill="#757575"/>
<path d="M6.97696 13.1738H3.08545C3.50594 16.7262 5.98723 19.6458 9.30156 20.701C8.00835 19.1261 7.13564 16.4227 6.97696 13.1738Z" fill="#757575"/>
</svg>
