<svg width="8" height="12" viewBox="0 0 8 12" fill="none" xmlns="http://www.w3.org/2000/svg">
<path d="M5.15996 5.99156L0.279006 1.45895C0.193158 1.37969 0.125026 1.28543 0.0785339 1.1816C0.0320415 1.07778 0.00810687 0.96643 0.00810687 0.853971C0.00810687 0.741513 0.0320415 0.630165 0.0785339 0.526338C0.125026 0.42251 0.193158 0.328254 0.279006 0.248994C0.452895 0.0894564 0.687414 0 0.931768 0C1.17612 0 1.41064 0.0894564 1.58453 0.248994L7.11427 5.38454C7.28137 5.54046 7.37736 5.75024 7.38229 5.97025C7.38721 6.19026 7.30069 6.40357 7.14072 6.56582L1.58717 11.7366C1.50229 11.8187 1.40063 11.8844 1.28815 11.9296C1.17566 11.9748 1.05461 11.9987 0.932055 12C0.809503 12.0012 0.687917 11.9797 0.574404 11.9368C0.46089 11.8938 0.357728 11.8303 0.270948 11.7498C0.184169 11.6694 0.115514 11.5737 0.0689972 11.4683C0.02248 11.363 -0.00096598 11.25 3.0479e-05 11.1362C0.00102694 11.0223 0.0264456 10.9097 0.0748004 10.805C0.123155 10.7004 0.193476 10.6057 0.281651 10.5266L5.15996 5.99156Z" fill="#B4B4B4"/>
</svg>
