<svg width="25" height="24" viewBox="0 0 25 24" fill="none" xmlns="http://www.w3.org/2000/svg">
<path d="M19.7222 15.2686L17.1822 14.9786C16.5722 14.9086 15.9722 15.1186 15.5422 15.5486L13.7022 17.3886C10.8722 15.9486 8.55223 13.6386 7.11223 10.7986L8.96223 8.94855C9.39223 8.51855 9.60223 7.91855 9.53223 7.30855L9.24223 4.78855C9.12223 3.77855 8.27223 3.01855 7.25223 3.01855H5.52223C4.39223 3.01855 3.45223 3.95855 3.52223 5.08855C4.05223 13.6286 10.8822 20.4486 19.4122 20.9786C20.5422 21.0486 21.4822 20.1086 21.4822 18.9786V17.2486C21.4922 16.2386 20.7322 15.3886 19.7222 15.2686Z" fill="white"/>
</svg>
