<svg width="10" height="14" viewBox="0 0 10 14" fill="none" xmlns="http://www.w3.org/2000/svg">
<path d="M3.50763 6.99049L9.1395 1.76055C9.23855 1.6691 9.31716 1.56034 9.37081 1.44054C9.42445 1.32074 9.45207 1.19226 9.45207 1.0625C9.45207 0.93274 9.42445 0.804262 9.37081 0.684461C9.31716 0.56466 9.23855 0.455903 9.1395 0.36445C8.93885 0.180367 8.66826 0.0771484 8.38631 0.0771484C8.10436 0.0771484 7.83376 0.180367 7.63312 0.36445L1.25265 6.29008C1.05984 6.46999 0.949084 6.71204 0.9434 6.9659C0.937717 7.21976 1.03755 7.46589 1.22214 7.6531L7.63007 13.6194C7.72801 13.7142 7.84531 13.7899 7.9751 13.842C8.10489 13.8942 8.24457 13.9218 8.38598 13.9232C8.52738 13.9247 8.66768 13.8999 8.79865 13.8503C8.92963 13.8008 9.04866 13.7275 9.14879 13.6347C9.24892 13.5419 9.32814 13.4314 9.38181 13.3099C9.43549 13.1883 9.46254 13.058 9.46139 12.9266C9.46024 12.7951 9.43091 12.6653 9.37512 12.5445C9.31932 12.4238 9.23818 12.3145 9.13644 12.2233L3.50763 6.99049Z" fill="#B4B4B4"/>
</svg>
